<svg width="14" height="10" viewBox="0 0 14 10" fill="currentColor" xmlns="http://www.w3.org/2000/svg">
<path d="M11.4464 4.23968L8.4928 1.27288C8.3566 1.13122 8.28123 0.941496 8.28293 0.744563C8.28463 0.547629 8.36327 0.359247 8.50191 0.219989C8.64055 0.0807309 8.8281 0.00173969 9.02415 2.83931e-05C9.22021 -0.0016829 9.4091 0.0740227 9.55012 0.21084L13.7801 4.45975C13.8498 4.52934 13.9051 4.61208 13.9428 4.70321C13.9806 4.79435 14 4.89207 14 4.99077C14 5.08947 13.9806 5.1872 13.9428 5.27833C13.9051 5.36946 13.8498 5.4522 13.7801 5.52179L9.55012 9.7707C9.48114 9.84244 9.39863 9.89966 9.30741 9.93902C9.21618 9.97838 9.11806 9.99911 9.01877 9.99997C8.91949 10.0008 8.82102 9.98183 8.72913 9.94407C8.63723 9.9063 8.55375 9.85053 8.48354 9.78001C8.41333 9.70949 8.35781 9.62563 8.32021 9.53332C8.28261 9.44102 8.26369 9.34211 8.26455 9.24238C8.26542 9.14266 8.28605 9.0441 8.32523 8.95246C8.36442 8.86083 8.42139 8.77795 8.4928 8.70866L11.4464 5.74186H0.747749C0.549434 5.74186 0.359241 5.66273 0.219011 5.52187C0.0787805 5.38101 0 5.18997 0 4.99077C0 4.79157 0.0787805 4.60053 0.219011 4.45967C0.359241 4.31881 0.549434 4.23968 0.747749 4.23968H11.4464Z" fill="inherent"/>
</svg>
