<svg   viewBox="0 0 17 17" fill="currentColor" xmlns="http://www.w3.org/2000/svg">
<g id="Icon">
<path id="Vector" fill-rule="evenodd" clip-rule="evenodd" d="M3.75581 17H1.38372C1.01684 17 0.664977 16.8545 0.405628 16.5944C0.145488 16.335 0 15.9832 0 15.6163V1.38372C0 1.01684 0.145488 0.664977 0.405628 0.405628C0.664977 0.145488 1.01684 0 1.38372 0H10.0814C10.4483 0 10.8001 0.145488 11.0595 0.405628C11.3196 0.664977 11.4651 1.01684 11.4651 1.38372V16.407C11.4651 16.7343 11.1994 17 10.8721 17H7.7093V12.4535C7.7093 12.017 7.35507 11.6628 6.9186 11.6628H4.54651C4.11005 11.6628 3.75581 12.017 3.75581 12.4535V17ZM6.32558 8.10465H5.13953V9.2907H6.32558V8.10465ZM8.69767 2.56977H7.51163V3.75581H8.69767V2.56977ZM8.69767 5.33721H7.51163V6.52326H8.69767V5.33721ZM8.69767 8.10465H7.51163V9.2907H8.69767V8.10465ZM3.95349 2.56977H2.76744V3.75581H3.95349V2.56977ZM3.95349 5.33721H2.76744V6.52326H3.95349V5.33721ZM3.95349 8.10465H2.76744V9.2907H3.95349V8.10465ZM6.32558 2.56977H5.13953V3.75581H6.32558V2.56977ZM6.32558 5.33721H5.13953V6.52326H6.32558V5.33721Z" fill="inheret"/>
<path id="Vector_2" fill-rule="evenodd" clip-rule="evenodd" d="M12.2556 4.74438H15.6161C16.3799 4.74438 16.9998 5.3635 16.9998 6.12811V15.6165C16.9998 16.3811 16.3799 17.0002 15.6161 17.0002H12.1228C12.2082 16.8207 12.2556 16.6191 12.2556 16.4072V4.74438ZM15.0231 7.51183H13.837V8.69787H15.0231V7.51183ZM15.0231 10.2793H13.837V11.4653H15.0231V10.2793ZM15.0231 13.0467H13.837V14.2328H15.0231V13.0467Z" fill="inheret"/>
</g>
</svg>
