<svg  viewBox="0 0 21 15" fill="currentColor" xmlns="http://www.w3.org/2000/svg">
<path d="M20.924 7.95128C20.7664 6.18334 20.507 5.83903 20.4089 5.70953C20.1836 5.41027 19.823 5.21471 19.4415 5.00953C19.4199 4.99812 19.4013 4.98185 19.3871 4.96201C19.3729 4.94217 19.3634 4.9193 19.3596 4.89521C19.3557 4.87111 19.3575 4.84644 19.3648 4.82316C19.3721 4.79987 19.3847 4.7786 19.4017 4.76103C19.4723 4.68938 19.5266 4.60328 19.5609 4.50865C19.5951 4.41402 19.6084 4.3131 19.5999 4.21284C19.5834 4.03504 19.5007 3.86992 19.3682 3.75023C19.2357 3.63054 19.063 3.56501 18.8845 3.56665H18.2019C18.1726 3.56682 18.1434 3.56872 18.1144 3.57234C18.0944 3.5637 18.0738 3.55682 18.0527 3.55178C17.6483 2.69734 17.0948 1.52746 15.9475 0.956525C14.2458 0.1104 11.1111 0.0666504 10.4985 0.0666504C9.88596 0.0666504 6.75125 0.1104 5.05175 0.955213C3.90445 1.52615 3.35094 2.69603 2.94663 3.55046L2.94313 3.55746C2.92296 3.5603 2.90316 3.56529 2.88405 3.57234C2.85502 3.56872 2.8258 3.56682 2.79654 3.56665H2.11263C1.93405 3.56501 1.76139 3.63054 1.62887 3.75023C1.49635 3.86992 1.41367 4.03504 1.39721 4.21284C1.38944 4.31287 1.40336 4.4134 1.43802 4.50756C1.47269 4.60171 1.52727 4.68728 1.59805 4.7584C1.61499 4.77598 1.6276 4.79725 1.63491 4.82053C1.64221 4.84382 1.644 4.86848 1.64014 4.89258C1.63628 4.91668 1.62687 4.93955 1.61266 4.95939C1.59844 4.97923 1.57981 4.99549 1.55823 5.0069C1.17668 5.2134 0.814375 5.40896 0.59078 5.7069C0.492765 5.83815 0.233727 6.18071 0.0757663 7.94865C-0.0117466 8.94353 -0.0248735 9.9734 0.0438241 10.6367C0.187783 12.0148 0.45776 12.8478 0.469137 12.8823C0.510565 13.0081 0.586824 13.1196 0.689061 13.2037C0.791297 13.2879 0.915317 13.3414 1.04672 13.3579V13.3667C1.04672 13.5523 1.12048 13.7303 1.25178 13.8616C1.38307 13.9929 1.56115 14.0667 1.74682 14.0667H4.19718C4.38286 14.0667 4.56094 13.9929 4.69223 13.8616C4.82353 13.7303 4.89729 13.5523 4.89729 13.3667C5.27403 13.3667 5.53613 13.2993 5.81399 13.2275C6.21514 13.1195 6.62517 13.0476 7.03917 13.0127C8.37417 12.8854 9.70174 12.8417 10.4985 12.8417C11.2792 12.8417 12.6654 12.8854 14.0026 13.0127C14.4182 13.0476 14.8298 13.1198 15.2326 13.2284C15.4986 13.2966 15.7511 13.3596 16.1007 13.3662C16.1007 13.5519 16.1744 13.7299 16.3057 13.8612C16.437 13.9925 16.6151 14.0662 16.8008 14.0662H19.2511C19.4368 14.0662 19.6149 13.9925 19.7462 13.8612C19.8775 13.7299 19.9513 13.5519 19.9513 13.3662V13.361C20.083 13.3447 20.2074 13.2914 20.3099 13.2072C20.4125 13.123 20.489 13.0114 20.5306 12.8854C20.542 12.8508 20.8119 12.0178 20.9559 10.6397C21.0246 9.97603 21.0123 8.9479 20.924 7.95128ZM4.21206 4.14896C4.56211 3.40521 4.96248 2.56346 5.67528 2.20865C6.7053 1.6959 8.84018 1.4649 10.4985 1.4649C12.1569 1.4649 14.2918 1.69415 15.3218 2.20865C16.0346 2.56346 16.4332 3.40565 16.785 4.14896L16.8288 4.2439C16.8544 4.29795 16.8657 4.35765 16.8616 4.41731C16.8576 4.47697 16.8383 4.5346 16.8057 4.5847C16.7731 4.6348 16.7281 4.6757 16.6752 4.70351C16.6222 4.73131 16.563 4.74509 16.5032 4.74353C15.0492 4.70415 11.9863 4.57815 10.4985 4.57815C9.01083 4.57815 5.94788 4.70721 4.49167 4.74659C4.43188 4.74815 4.37269 4.73437 4.31975 4.70657C4.2668 4.67877 4.22186 4.63786 4.18921 4.58776C4.15657 4.53766 4.13731 4.48003 4.13326 4.42037C4.12922 4.36071 4.14053 4.30101 4.16612 4.24696C4.18143 4.21459 4.19762 4.18178 4.21206 4.14896ZM4.73408 7.63278C3.98138 7.72335 3.22387 7.76806 2.46574 7.76665C2.00192 7.76665 1.52367 7.6354 1.43484 7.2224C1.37402 6.94459 1.38058 6.7884 1.4134 6.63134C1.44097 6.4979 1.48472 6.40078 1.70351 6.36665C2.27234 6.27915 2.59045 6.38896 3.52159 6.66328C4.13899 6.84484 4.58443 7.08678 4.83822 7.2784C4.96555 7.3729 4.89773 7.61965 4.73408 7.63278ZM14.4209 11.2203C13.845 11.2859 12.6934 11.2618 10.5117 11.2618C8.32998 11.2618 7.17875 11.2859 6.60291 11.2203C6.0087 11.1542 5.25128 10.5925 5.76848 10.092C6.11284 9.76209 6.91621 9.51534 7.98605 9.37665C9.0559 9.23796 9.50878 9.16665 10.5073 9.16665C11.5058 9.16665 11.9128 9.2104 13.0285 9.37709C14.1443 9.54378 14.9875 9.79359 15.2461 10.0924C15.7178 10.6279 15.0147 11.1507 14.4209 11.2229V11.2203ZM19.5623 7.22196C19.4747 7.63671 18.9934 7.76621 18.5314 7.76621C17.7587 7.76639 16.9867 7.72169 16.2193 7.63234C16.0854 7.61965 16.0232 7.38471 16.1589 7.27796C16.4087 7.08152 16.859 6.8444 17.4755 6.66284C18.4066 6.38853 18.9435 6.27871 19.4047 6.37015C19.5172 6.39246 19.5767 6.51321 19.5837 6.5889C19.6146 6.79965 19.6073 7.01422 19.5623 7.2224V7.22196Z" fill="inherent"/>
</svg>
