<svg  viewBox="0 0 16 18" fill="currentColor" xmlns="http://www.w3.org/2000/svg">
<path fill-rule="evenodd" clip-rule="evenodd" d="M5.88585 5.05426L4.67156 2.2756C4.57192 2.04759 4.47519 1.73467 4.49548 1.40708C4.51823 1.03975 4.69898 0.630612 5.14976 0.417765C5.48931 0.257441 5.92298 0.157385 6.3578 0.0949585C6.80392 0.0309076 7.29899 0 7.78785 0C8.27669 0 8.77176 0.0309076 9.21788 0.0949585C9.6527 0.157385 10.0864 0.257441 10.4259 0.417765C10.8767 0.630612 11.0575 1.03975 11.0802 1.40708C11.1005 1.73467 11.0038 2.04759 10.9041 2.2756L9.68495 5.06546L9.66945 5.10013C11.1549 5.38897 12.4024 6.01892 13.3489 6.99625C14.656 8.34593 15.3 10.2659 15.3 12.5913C15.3 13.7659 15.1365 14.7315 14.773 15.5088C14.4012 16.3042 13.8378 16.8635 13.1184 17.2403C12.4174 17.6075 11.5896 17.7909 10.6898 17.8879C9.78804 17.9851 8.76313 18 7.65003 18C6.53692 18 5.51203 17.9851 4.61025 17.8879C3.71048 17.7909 2.88259 17.6075 2.18167 17.2403C1.46221 16.8635 0.898891 16.3042 0.526969 15.5088C0.16349 14.7315 0 13.7659 0 12.5913C0 10.229 0.664795 8.28539 2.01299 6.9334C3.00681 5.93678 4.32071 5.31307 5.88585 5.05426ZM7.27203 15.1488C7.36803 15.2448 7.48563 15.2928 7.62483 15.2928C7.77363 15.2928 7.89363 15.2448 7.98483 15.1488C8.08083 15.0528 8.12883 14.9328 8.12883 14.7888V14.3949C8.38715 14.3455 8.61755 14.2632 8.82003 14.148C9.06963 14.0088 9.26403 13.8288 9.40323 13.608C9.54243 13.3872 9.61203 13.1328 9.61203 12.8448C9.61203 12.4752 9.50163 12.1752 9.28083 11.9448C9.06483 11.7096 8.72883 11.5416 8.27283 11.4408L7.45203 11.2608C7.24083 11.2128 7.09443 11.1576 7.01283 11.0952C6.93603 11.028 6.89763 10.9464 6.89763 10.8504C6.89763 10.7064 6.96483 10.5888 7.09923 10.4976C7.23843 10.4064 7.43523 10.3608 7.68963 10.3608C7.90083 10.3608 8.07363 10.3776 8.20803 10.4112C8.34723 10.44 8.47203 10.4784 8.58243 10.5264C8.73123 10.5888 8.85843 10.608 8.96403 10.584C9.07443 10.5552 9.16083 10.5 9.22323 10.4184C9.29043 10.3368 9.32883 10.2456 9.33843 10.1448C9.35283 10.0392 9.33603 9.93604 9.28803 9.83524C9.24483 9.73444 9.16803 9.65524 9.05763 9.59764C8.89923 9.50164 8.71443 9.42724 8.50323 9.37444C8.37295 9.33891 8.24815 9.31342 8.12883 9.29798V8.93524C8.12883 8.79124 8.08083 8.67124 7.98483 8.57524C7.88883 8.47924 7.76883 8.43124 7.62483 8.43124C7.48563 8.43124 7.36803 8.47924 7.27203 8.57524C7.17603 8.67124 7.12803 8.79124 7.12803 8.93524V9.32715C6.87095 9.3751 6.64055 9.45566 6.43683 9.56884C6.18243 9.71284 5.98323 9.90004 5.83923 10.1304C5.70003 10.356 5.63043 10.6128 5.63043 10.9008C5.63043 11.28 5.73843 11.5896 5.95443 11.8296C6.17523 12.0648 6.50883 12.2328 6.95523 12.3336L7.76883 12.5064C7.91283 12.54 8.02563 12.5784 8.10723 12.6216C8.18883 12.66 8.24643 12.7056 8.28003 12.7584C8.31843 12.8064 8.33763 12.8664 8.33763 12.9384C8.33763 13.0152 8.31123 13.0872 8.25843 13.1544C8.21043 13.2168 8.12643 13.2672 8.00643 13.3056C7.89123 13.344 7.73283 13.3632 7.53123 13.3632C7.24323 13.3632 7.00083 13.3368 6.80403 13.284C6.61203 13.2264 6.46803 13.1712 6.37203 13.1184C6.22803 13.056 6.10083 13.0416 5.99043 13.0752C5.88483 13.104 5.79843 13.164 5.73123 13.2552C5.66403 13.3464 5.62323 13.4472 5.60883 13.5576C5.59923 13.668 5.61843 13.776 5.66643 13.8816C5.71923 13.9872 5.80803 14.0688 5.93283 14.1264C6.08163 14.1936 6.27363 14.2608 6.50883 14.328C6.68969 14.3797 6.89609 14.4158 7.12803 14.4362V14.7888C7.12803 14.9328 7.17603 15.0528 7.27203 15.1488Z" fill="inherent"/>
</svg>
