<svg width="30" height="30" viewBox="0 0 30 30" fill="currentColor" xmlns="http://www.w3.org/2000/svg">
<g clip-path="url(#clip0_559_22669)">
<path d="M16.175 15L23.0834 8.09168C23.2199 7.93226 23.2912 7.7272 23.2831 7.51747C23.275 7.30774 23.1881 7.10879 23.0397 6.96038C22.8912 6.81196 22.6923 6.72502 22.4826 6.71692C22.2728 6.70882 22.0678 6.78016 21.9084 6.91668L15 13.825L8.09169 6.90835C7.93477 6.75143 7.72194 6.66327 7.50002 6.66327C7.2781 6.66327 7.06527 6.75143 6.90835 6.90835C6.75143 7.06527 6.66328 7.27809 6.66328 7.50001C6.66328 7.72193 6.75143 7.93476 6.90835 8.09168L13.825 15L6.90835 21.9083C6.82112 21.9831 6.75027 22.075 6.70025 22.1784C6.65023 22.2818 6.62212 22.3944 6.61769 22.5091C6.61325 22.6239 6.63259 22.7383 6.67449 22.8453C6.71638 22.9522 6.77993 23.0493 6.86114 23.1306C6.94236 23.2118 7.03948 23.2753 7.14642 23.3172C7.25335 23.3591 7.3678 23.3784 7.48256 23.374C7.59733 23.3696 7.70994 23.3415 7.81333 23.2915C7.91671 23.2414 8.00865 23.1706 8.08335 23.0833L15 16.175L21.9084 23.0833C22.0678 23.2199 22.2728 23.2912 22.4826 23.2831C22.6923 23.275 22.8912 23.1881 23.0397 23.0396C23.1881 22.8912 23.275 22.6923 23.2831 22.4826C23.2912 22.2728 23.2199 22.0678 23.0834 21.9083L16.175 15Z" fill="inherent"/>
</g>
<defs>
<clipPath id="clip0_559_22669">
<rect width="30" height="30" fill="inherent"/>
</clipPath>
</defs>
</svg>
