<svg  viewBox="0 0 18 18" fill="currentColor" xmlns="http://www.w3.org/2000/svg">
<path d="M9 0C4.03745 0 0 4.03745 0 9C0 13.9625 4.03745 18 9 18C13.9625 18 18 13.9625 18 9C18 4.03745 13.9625 0 9 0ZM12.2318 10.9393C11.8259 11.4343 11.0895 12.2257 9.38899 13.3801C9.27431 13.4587 9.13856 13.5007 8.99957 13.5007C8.86057 13.5007 8.72483 13.4587 8.61014 13.3801C6.90966 12.2257 6.17322 11.433 5.76736 10.9393C4.90197 9.88486 4.48745 8.80183 4.49957 7.62923C4.51298 6.28529 5.59082 5.19188 6.90231 5.19188C7.785 5.19188 8.41673 5.65183 8.81048 6.075C8.83475 6.10067 8.86399 6.12111 8.89643 6.13508C8.92887 6.14906 8.96381 6.15626 8.99914 6.15626C9.03445 6.15626 9.0694 6.14906 9.10184 6.13508C9.13428 6.12111 9.16352 6.10067 9.18779 6.075C9.58197 5.65183 10.2133 5.19188 11.096 5.19188C12.4075 5.19188 13.4853 6.28529 13.4987 7.62923C13.5117 8.80183 13.0967 9.88486 12.2318 10.9393Z" fill="inherent"/>
</svg>
