<svg width="59" height="58" viewBox="0 0 59 58" fill="none" xmlns="http://www.w3.org/2000/svg">
<g id="Icon">
<rect id="BG" x="0.666687" width="58" height="58" rx="16" fill="url(#paint0_linear_365_14512)"/>
<path id="Vector" d="M29.6667 14C21.3958 14 14.6667 20.7291 14.6667 29C14.6667 37.2709 21.3958 44 29.6667 44C37.9376 44 44.6667 37.2709 44.6667 29C44.6667 20.7291 37.9376 14 29.6667 14ZM35.053 32.2322C34.3765 33.0572 33.1491 34.3762 30.315 36.3002C30.1239 36.4311 29.8976 36.5012 29.666 36.5012C29.4343 36.5012 29.2081 36.4311 29.0169 36.3002C26.1828 34.3762 24.9554 33.055 24.2789 32.2322C22.8366 30.4748 22.1458 28.6697 22.166 26.7154C22.1883 24.4755 23.9847 22.6531 26.1705 22.6531C27.6417 22.6531 28.6946 23.4197 29.3508 24.125C29.3913 24.1678 29.44 24.2018 29.4941 24.2251C29.5481 24.2484 29.6064 24.2604 29.6652 24.2604C29.7241 24.2604 29.7824 24.2484 29.8364 24.2251C29.8905 24.2018 29.9392 24.1678 29.9797 24.125C30.6366 23.4197 31.6888 22.6531 33.16 22.6531C35.3458 22.6531 37.1422 24.4755 37.1645 26.7154C37.1862 28.6697 36.4946 30.4748 35.053 32.2322Z" fill="white"/>
</g>
<defs>
<linearGradient id="paint0_linear_365_14512" x1="29.6667" y1="0" x2="29.6667" y2="58" gradientUnits="userSpaceOnUse">
<stop stop-color="#18376D"/>
<stop offset="1" stop-color="#0B284D"/>
</linearGradient>
</defs>
</svg>
