<svg width="59" height="58" viewBox="0 0 59 58" fill="none" xmlns="http://www.w3.org/2000/svg">
<g id="Icon">
<rect id="BG" x="0.333344" width="58" height="58" rx="16" fill="url(#paint0_linear_365_14500)"/>
<path id="Vector" d="M45.2175 30.3901C44.9774 27.6119 44.582 27.0709 44.4327 26.8674C44.0893 26.3971 43.5399 26.0898 42.9585 25.7674C42.9256 25.7494 42.8972 25.7239 42.8755 25.6927C42.8539 25.6615 42.8395 25.6256 42.8337 25.5877C42.8278 25.5499 42.8305 25.5111 42.8416 25.4745C42.8528 25.4379 42.872 25.4045 42.8978 25.3769C43.0055 25.2643 43.0882 25.129 43.1404 24.9803C43.1925 24.8316 43.2128 24.673 43.1998 24.5154C43.1748 24.236 43.0488 23.9766 42.8468 23.7885C42.6449 23.6004 42.3818 23.4974 42.1097 23.5H41.0695C41.0249 23.5003 40.9804 23.5033 40.9362 23.5089C40.9058 23.4954 40.8744 23.4845 40.8422 23.4766C40.2261 22.1339 39.3826 20.2956 37.6344 19.3984C35.0413 18.0687 30.2646 18 29.3311 18C28.3977 18 23.621 18.0687 21.0312 19.3963C19.283 20.2935 18.4395 22.1319 17.8234 23.4746L17.8181 23.4856C17.7874 23.49 17.7572 23.4979 17.7281 23.5089C17.6839 23.5033 17.6393 23.5003 17.5947 23.5H16.5526C16.2805 23.4974 16.0174 23.6004 15.8154 23.7885C15.6135 23.9766 15.4875 24.236 15.4624 24.5154C15.4506 24.6726 15.4718 24.8306 15.5246 24.9786C15.5774 25.1265 15.6606 25.261 15.7685 25.3728C15.7943 25.4004 15.8135 25.4338 15.8246 25.4704C15.8358 25.507 15.8385 25.5457 15.8326 25.5836C15.8267 25.6215 15.8124 25.6574 15.7907 25.6886C15.7691 25.7198 15.7407 25.7453 15.7078 25.7632C15.1264 26.0878 14.5743 26.3951 14.2336 26.8632C14.0842 27.0695 13.6895 27.6078 13.4488 30.386C13.3154 31.9494 13.2954 33.5678 13.4001 34.61C13.6195 36.7756 14.0309 38.0846 14.0482 38.1389C14.1113 38.3366 14.2276 38.5117 14.3833 38.644C14.5391 38.7763 14.7281 38.8603 14.9283 38.8862V38.9C14.9283 39.1917 15.0407 39.4715 15.2408 39.6778C15.4409 39.8841 15.7122 40 15.9952 40H19.7291C20.012 40 20.2833 39.8841 20.4834 39.6778C20.6835 39.4715 20.7959 39.1917 20.7959 38.9C21.37 38.9 21.7694 38.7941 22.1927 38.6814C22.804 38.5115 23.4288 38.3986 24.0597 38.3438C26.094 38.1438 28.117 38.075 29.3311 38.075C30.5206 38.075 32.633 38.1438 34.6706 38.3438C35.3039 38.3987 35.9312 38.5121 36.5449 38.6828C36.9503 38.79 37.335 38.889 37.8677 38.8993C37.8677 39.191 37.9801 39.4708 38.1802 39.6771C38.3803 39.8834 38.6516 39.9993 38.9345 39.9993H42.6684C42.9514 39.9993 43.2227 39.8834 43.4228 39.6771C43.6229 39.4708 43.7353 39.191 43.7353 38.8993V38.8911C43.936 38.8656 44.1255 38.7818 44.2818 38.6495C44.4381 38.5172 44.5547 38.3418 44.618 38.1438C44.6354 38.0894 45.0468 36.7804 45.2661 34.6148C45.3708 33.5719 45.3522 31.9563 45.2175 30.3901ZM19.7517 24.4151C20.2851 23.2463 20.8952 21.9236 21.9814 21.366C23.551 20.5603 26.8041 20.1972 29.3311 20.1972C31.8582 20.1972 35.1113 20.5575 36.6809 21.366C37.767 21.9236 38.3745 23.247 38.9105 24.4151L38.9772 24.5642C39.0162 24.6492 39.0334 24.743 39.0273 24.8367C39.0211 24.9305 38.9918 25.0211 38.942 25.0998C38.8923 25.1785 38.8238 25.2428 38.7431 25.2865C38.6624 25.3302 38.5722 25.3518 38.4811 25.3494C36.2655 25.2875 31.5981 25.0895 29.3311 25.0895C27.0641 25.0895 22.3968 25.2923 20.1778 25.3542C20.0867 25.3566 19.9965 25.335 19.9158 25.2913C19.8351 25.2476 19.7667 25.1833 19.7169 25.1046C19.6672 25.0259 19.6378 24.9353 19.6316 24.8416C19.6255 24.7478 19.6427 24.654 19.6817 24.5691C19.7051 24.5182 19.7297 24.4666 19.7517 24.4151ZM20.5472 29.8896C19.4002 30.032 18.2459 30.1022 17.0907 30.1C16.3839 30.1 15.6551 29.8938 15.5198 29.2448C15.4271 28.8082 15.4371 28.5628 15.4871 28.3159C15.5291 28.1063 15.5958 27.9536 15.9292 27.9C16.796 27.7625 17.2807 27.9351 18.6996 28.3661C19.6404 28.6514 20.3191 29.0316 20.7059 29.3328C20.8999 29.4812 20.7965 29.869 20.5472 29.8896ZM35.308 35.5271C34.4306 35.6303 32.6756 35.5924 29.3511 35.5924C26.0266 35.5924 24.2724 35.6303 23.3949 35.5271C22.4895 35.4233 21.3353 34.5406 22.1234 33.7541C22.6481 33.2357 23.8723 32.8479 25.5026 32.63C27.1328 32.4121 27.8229 32.3 29.3445 32.3C30.866 32.3 31.4861 32.3688 33.1864 32.6307C34.8866 32.8926 36.1715 33.2852 36.5655 33.7548C37.2843 34.5963 36.2128 35.4178 35.308 35.5312V35.5271ZM43.1425 29.2441C43.0091 29.8958 42.2757 30.0993 41.5716 30.0993C40.3942 30.0996 39.2179 30.0294 38.0484 29.8889C37.8444 29.869 37.7497 29.4998 37.9564 29.3321C38.3371 29.0234 39.0232 28.6508 39.9627 28.3654C41.3816 27.9344 42.1997 27.7618 42.9025 27.9055C43.0738 27.9406 43.1645 28.1303 43.1752 28.2493C43.2222 28.5804 43.2111 28.9176 43.1425 29.2448V29.2441Z" fill="white"/>
</g>
<defs>
<linearGradient id="paint0_linear_365_14500" x1="29.3333" y1="0" x2="29.3333" y2="58" gradientUnits="userSpaceOnUse">
<stop stop-color="#18376D"/>
<stop offset="1" stop-color="#0B284D"/>
</linearGradient>
</defs>
</svg>
