<svg viewBox="0 0 18 18" fill="none" stroke="currentColor" xmlns="http://www.w3.org/2000/svg">
<path id="Vector" d="M16.666 12.9791V15.3877C16.6669 15.6113 16.621 15.8327 16.5313 16.0375C16.4415 16.2424 16.3099 16.4263 16.1448 16.5775C15.9797 16.7286 15.7848 16.8437 15.5725 16.9154C15.3603 16.987 15.1354 17.0136 14.9123 16.9935C12.4367 16.725 10.0588 15.8808 7.96963 14.5286C6.02588 13.2959 4.37791 11.6512 3.14277 9.71135C1.78319 7.61679 0.937097 5.23206 0.673034 2.75036C0.65293 2.52834 0.679369 2.30457 0.750666 2.0933C0.821963 1.88203 0.936556 1.6879 1.08715 1.52325C1.23774 1.35861 1.42104 1.22706 1.62536 1.13699C1.82969 1.04691 2.05057 1.00029 2.27394 1.00008H4.68737C5.07778 0.996243 5.45628 1.13422 5.7523 1.3883C6.04832 1.64237 6.24168 1.99521 6.29632 2.38103C6.39818 3.15185 6.5871 3.9087 6.85945 4.63713C6.96769 4.9245 6.99111 5.23682 6.92695 5.53707C6.86279 5.83732 6.71373 6.11292 6.49744 6.33121L5.47575 7.35087C6.62097 9.36092 8.28857 11.0252 10.3026 12.1682L11.3243 11.1485C11.543 10.9326 11.8192 10.7839 12.12 10.7198C12.4209 10.6558 12.7338 10.6792 13.0217 10.7872C13.7516 11.059 14.51 11.2476 15.2823 11.3492C15.6731 11.4042 16.03 11.6007 16.2851 11.9012C16.5402 12.2017 16.6758 12.5853 16.666 12.9791Z" stroke="inherent" stroke-linecap="round" stroke-linejoin="round"/>
</svg>
