<svg  viewBox="0 0 18 18" fill="currentColor" xmlns="http://www.w3.org/2000/svg">
<path d="M14.1096 16.1571L13.3331 16.9335C13.2551 17.0115 13.1587 17.0687 13.0529 17.0999C12.947 17.131 12.8351 17.1351 12.7272 17.1118C12.6194 17.0885 12.5191 17.0386 12.4356 16.9665C12.352 16.8944 12.2879 16.8026 12.249 16.6993L9.98016 10.6703L7.09434 13.4307L7.3122 15.7077C7.36265 16.1508 7.31598 16.4174 6.91639 16.8169L6.39371 17.3396C6.31362 17.425 6.21412 17.4899 6.10363 17.5287C5.99315 17.5675 5.87495 17.5791 5.75904 17.5625C5.59599 17.5383 5.36907 17.4478 5.20924 17.155L3.7165 14.5061C3.70542 14.4862 3.69521 14.4655 3.68588 14.4445C3.68473 14.4428 3.68324 14.4413 3.68151 14.4402C3.66033 14.431 3.63968 14.4207 3.61967 14.4092L0.957034 12.904C0.672366 12.7447 0.585743 12.521 0.563286 12.3609C0.548177 12.2533 0.558515 12.1437 0.593469 12.0409C0.628424 11.9381 0.687019 11.8449 0.764544 11.7688L1.31639 11.2169C1.61477 10.9186 2.03828 10.7628 2.42474 10.8086L4.65951 11.0267L7.45607 8.14618L1.43486 5.88405C1.3316 5.84524 1.23972 5.78117 1.16761 5.69769C1.0955 5.6142 1.04547 5.51398 1.02209 5.40617C0.998703 5.29836 1.00272 5.18642 1.03376 5.08056C1.0648 4.9747 1.12189 4.87832 1.19979 4.80021L1.98468 4.01532C2.09638 3.90802 2.23082 3.82726 2.37801 3.77903C2.5252 3.73081 2.68136 3.71636 2.8349 3.73676L10.9156 4.52273L12.5563 2.7934C12.6729 2.66331 13.0124 2.31914 13.0915 2.2401C14.7041 0.629188 16.1899 0.189917 17.0667 1.06667C17.3426 1.34258 17.7439 1.96442 17.3318 3.02756C17.0888 3.65553 16.6052 4.33396 15.8947 5.04447C15.8165 5.12264 15.4732 5.46127 15.3414 5.57969L13.6118 7.21948L14.3887 15.3092C14.4087 15.4624 14.3939 15.6182 14.3456 15.7649C14.2973 15.9117 14.2166 16.0457 14.1096 16.1571Z" fill="inherent"/>
</svg>
