<svg width="58" height="58" viewBox="0 0 58 58" fill="none" xmlns="http://www.w3.org/2000/svg">
<g id="Icon">
<rect id="BG" width="58" height="58" rx="16" fill="url(#paint0_linear_534_1073)"/>
<path id="Subtract" fill-rule="evenodd" clip-rule="evenodd" d="M25.7715 21.779L23.5492 16.6939C23.3669 16.2766 23.1899 15.704 23.227 15.1045C23.2686 14.4322 23.5994 13.6835 24.4244 13.2939C25.0458 13.0005 25.8394 12.8174 26.6352 12.7032C27.4516 12.586 28.3576 12.5294 29.2523 12.5294C30.1469 12.5294 31.0529 12.586 31.8693 12.7032C32.6651 12.8174 33.4587 13.0005 34.0801 13.2939C34.9051 13.6835 35.2359 14.4322 35.2775 15.1045C35.3146 15.704 35.1376 16.2766 34.9553 16.6939L32.7241 21.7995L32.6957 21.863C35.4143 22.3916 37.6971 23.5444 39.4293 25.333C41.8214 27.803 43 31.3166 43 35.5724C43 37.7218 42.7008 39.489 42.0356 40.9115C41.355 42.3671 40.3241 43.3906 39.0075 44.0802C37.7247 44.7522 36.2097 45.0879 34.563 45.2653C32.9127 45.4433 31.0371 45.4706 29.0001 45.4706C26.963 45.4706 25.0874 45.4433 23.4371 45.2653C21.7904 45.0879 20.2753 44.7522 18.9926 44.0802C17.6759 43.3906 16.645 42.3671 15.9644 40.9115C15.2992 39.489 15 37.7218 15 35.5724C15 31.2491 16.2166 27.6922 18.6839 25.218C20.5026 23.3941 22.9072 22.2527 25.7715 21.779ZM28.3082 40.2527C28.4839 40.4283 28.6991 40.5162 28.9539 40.5162C29.2262 40.5162 29.4458 40.4283 29.6127 40.2527C29.7884 40.077 29.8762 39.8574 29.8762 39.5938V38.873C30.349 38.7825 30.7706 38.6318 31.1412 38.4211C31.598 38.1664 31.9537 37.837 32.2085 37.4329C32.4632 37.0288 32.5906 36.5632 32.5906 36.0362C32.5906 35.3598 32.3885 34.8108 31.9845 34.3891C31.5892 33.9587 30.9743 33.6512 30.1398 33.4668L28.6376 33.1374C28.2511 33.0495 27.9832 32.9485 27.8339 32.8343C27.6933 32.7113 27.6231 32.562 27.6231 32.3863C27.6231 32.1228 27.746 31.9076 27.992 31.7407C28.2467 31.5738 28.6069 31.4903 29.0725 31.4903C29.459 31.4903 29.7752 31.5211 30.0212 31.5825C30.2759 31.6353 30.5043 31.7055 30.7064 31.7934C30.9787 31.9076 31.2114 31.9427 31.4047 31.8988C31.6067 31.8461 31.7649 31.7451 31.8791 31.5957C32.002 31.4464 32.0723 31.2795 32.0899 31.095C32.1162 30.9018 32.0855 30.7129 31.9976 30.5284C31.9186 30.344 31.778 30.199 31.576 30.0936C31.2861 29.9179 30.9479 29.7818 30.5614 29.6851C30.323 29.6201 30.0946 29.5735 29.8762 29.5452V28.8814C29.8762 28.6178 29.7884 28.3982 29.6127 28.2225C29.437 28.0469 29.2174 27.959 28.9539 27.959C28.6991 27.959 28.4839 28.0469 28.3082 28.2225C28.1325 28.3982 28.0447 28.6178 28.0447 28.8814V29.5986C27.5742 29.6863 27.1526 29.8338 26.7798 30.0409C26.3142 30.3044 25.9496 30.647 25.6861 31.0687C25.4314 31.4815 25.304 31.9515 25.304 32.4785C25.304 33.1725 25.5016 33.7391 25.8969 34.1783C26.301 34.6087 26.9115 34.9162 27.7285 35.1007L29.2174 35.4169C29.4809 35.4784 29.6874 35.5487 29.8367 35.6277C29.986 35.698 30.0914 35.7814 30.1529 35.8781C30.2232 35.9659 30.2584 36.0757 30.2584 36.2075C30.2584 36.348 30.21 36.4798 30.1134 36.6028C30.0256 36.717 29.8718 36.8092 29.6522 36.8795C29.4414 36.9498 29.1515 36.9849 28.7826 36.9849C28.2555 36.9849 27.8119 36.9366 27.4518 36.84C27.1004 36.7345 26.8369 36.6335 26.6612 36.5369C26.3976 36.4227 26.1649 36.3963 25.9628 36.4578C25.7696 36.5105 25.6115 36.6203 25.4885 36.7872C25.3655 36.9541 25.2908 37.1386 25.2645 37.3407C25.2469 37.5427 25.282 37.7403 25.3699 37.9336C25.4665 38.1269 25.629 38.2762 25.8574 38.3816C26.1297 38.5046 26.4811 38.6276 26.9115 38.7505C27.2425 38.8451 27.6202 38.9111 28.0447 38.9485V39.5938C28.0447 39.8574 28.1325 40.077 28.3082 40.2527Z" fill="white"/>
</g>
<defs>
<linearGradient id="paint0_linear_534_1073" x1="29" y1="0" x2="29" y2="58" gradientUnits="userSpaceOnUse">
<stop stop-color="#18376D"/>
<stop offset="1" stop-color="#0B284D"/>
</linearGradient>
</defs>
</svg>
