<svg   viewBox="0 0 17 19" fill="currentColor" xmlns="http://www.w3.org/2000/svg">
<g id="Layer 2">
<path id="Vector" d="M15.6327 2.39144C14.464 2.26708 13.3137 2.00709 12.2051 1.61673C11.1878 1.25729 10.2119 0.789769 9.29432 0.222198C9.05486 0.0768558 8.78012 0 8.5 0C8.21988 0 7.94514 0.0768558 7.70568 0.222198L7.70481 0.22307C6.78737 0.790179 5.81182 1.2574 4.79487 1.61673C3.68654 2.00701 2.53657 2.267 1.36814 2.39147C0.992815 2.4299 0.645105 2.60626 0.392353 2.88637C0.1396 3.16649 -0.000209411 3.53043 2.35435e-07 3.90772V8.43696C0.000614059 10.1081 0.447818 11.7487 1.29533 13.1889C2.14284 14.6292 3.35985 15.8168 4.82042 16.6288L7.75846 18.2616C7.98473 18.3889 8.23997 18.4558 8.49957 18.4558C8.75918 18.4558 9.01441 18.3889 9.24069 18.2616L12.1796 16.6288C13.6401 15.8168 14.8572 14.6292 15.7047 13.1889C16.5522 11.7487 16.9994 10.1081 17 8.43696V3.90772C17.0003 3.53055 16.8606 3.16671 16.608 2.8866C16.3554 2.6065 16.0079 2.43006 15.6327 2.39144ZM11.9693 7.62395L8.70007 11.1111C8.54483 11.2771 8.33088 11.3757 8.10389 11.3861C7.8769 11.3964 7.65486 11.3176 7.48518 11.1665L5.52364 9.42289C5.35091 9.26935 5.24624 9.05348 5.23267 8.82277C5.2191 8.59206 5.29773 8.3654 5.45127 8.19267C5.60481 8.01994 5.82068 7.91527 6.05139 7.9017C6.2821 7.88813 6.50876 7.96676 6.68149 8.1203L8.00876 9.29944L10.6974 6.43205C10.779 6.34514 10.8775 6.27583 10.9868 6.22838C11.0962 6.18094 11.2141 6.15636 11.3333 6.15617C11.5033 6.15625 11.6695 6.20601 11.8116 6.29933C11.9536 6.39264 12.0653 6.52544 12.1329 6.68139C12.2004 6.83733 12.221 7.00963 12.1919 7.17708C12.1628 7.34454 12.0855 7.49989 11.9693 7.62395Z" fill="inheret"/>
</g>
</svg>
