<svg width="58" height="58" viewBox="0 0 58 58" fill="none" xmlns="http://www.w3.org/2000/svg">
<g id="Icon">
<rect id="BG" width="58" height="58" rx="16" fill="url(#paint0_linear_365_14524)"/>
<path id="Vector" d="M37.4249 40.0578L36.2484 41.2343C36.1302 41.3524 35.9842 41.4391 35.8238 41.4863C35.6634 41.5335 35.4938 41.5397 35.3304 41.5044C35.167 41.4691 35.015 41.3934 34.8884 41.2842C34.7618 41.175 34.6646 41.0358 34.6057 40.8794L31.1679 31.744L26.7952 35.9266L27.1253 39.3769C27.2018 40.0482 27.1311 40.4521 26.5256 41.0576L25.7336 41.8496C25.6123 41.979 25.4615 42.0773 25.2941 42.136C25.1267 42.1948 24.9476 42.2124 24.7719 42.1872C24.5249 42.1505 24.1811 42.0135 23.9389 41.5698L21.677 37.5561C21.6602 37.5261 21.6448 37.4947 21.6306 37.4629C21.6289 37.4602 21.6266 37.458 21.624 37.4562C21.5919 37.4424 21.5606 37.4267 21.5303 37.4094L17.4958 35.1285C17.0645 34.8872 16.9332 34.5483 16.8992 34.3056C16.8763 34.1427 16.892 33.9766 16.9449 33.8208C16.9979 33.665 17.0867 33.5237 17.2041 33.4085L18.0403 32.5723C18.4924 32.1202 19.1341 31.8842 19.7197 31.9536L23.1059 32.2841L27.3433 27.9194L18.2198 24.4918C18.0634 24.433 17.9241 24.3359 17.8149 24.2094C17.7056 24.0829 17.6298 23.931 17.5944 23.7677C17.5589 23.6043 17.565 23.4347 17.6121 23.2743C17.6591 23.1139 17.7456 22.9678 17.8636 22.8495L19.0529 21.6602C19.2222 21.4976 19.4259 21.3752 19.6489 21.3022C19.8719 21.2291 20.1086 21.2072 20.3412 21.2381L32.5853 22.429L35.0713 19.8087C35.2481 19.6116 35.7625 19.0901 35.8823 18.9703C38.3258 16.5294 40.5771 15.8638 41.9056 17.1923C42.3237 17.6104 42.9318 18.5526 42.3073 20.1635C41.9391 21.115 41.2064 22.143 40.1298 23.2196C40.0113 23.338 39.4912 23.8512 39.2914 24.0306L36.6706 26.5152L37.8478 38.7731C37.8781 39.0052 37.8558 39.2412 37.7826 39.4636C37.7094 39.6859 37.5871 39.889 37.4249 40.0578Z" fill="white"/>
</g>
<defs>
<linearGradient id="paint0_linear_365_14524" x1="29" y1="0" x2="29" y2="58" gradientUnits="userSpaceOnUse">
<stop stop-color="#18376D"/>
<stop offset="1" stop-color="#0B284D"/>
</linearGradient>
</defs>
</svg>
